<mxfile host="app.diagrams.net" modified="2022-02-11T08:57:39.655Z" agent="5.0 (Windows NT 10.0; Win64; x64) AppleWebKit/537.36 (KHTML, like Gecko) Chrome/98.0.4758.82 Safari/537.36" etag="hZAxb9M8sCTg516HewyQ" version="16.5.6" type="github">
  <diagram id="GHUH7aUTHNV1iHFmT0C8" name="ページ1">
    <mxGraphModel dx="1140" dy="671" grid="1" gridSize="10" guides="1" tooltips="1" connect="1" arrows="1" fold="1" page="1" pageScale="1" pageWidth="827" pageHeight="583" math="0" shadow="0">
      <root>
        <mxCell id="qaeBgTrw7U3qTMY30elM-0" />
        <mxCell id="qaeBgTrw7U3qTMY30elM-1" parent="qaeBgTrw7U3qTMY30elM-0" />
        <mxCell id="_4hq-xx5Gk1IdgjJdW3N-16" value="" style="rounded=0;whiteSpace=wrap;html=1;fontSize=17;strokeWidth=1;fillColor=#009999;strokeColor=#009999;" parent="qaeBgTrw7U3qTMY30elM-1" vertex="1">
          <mxGeometry x="40" y="20" width="10" height="40" as="geometry" />
        </mxCell>
        <mxCell id="_4hq-xx5Gk1IdgjJdW3N-17" value="" style="endArrow=none;html=1;rounded=0;fontSize=17;strokeWidth=4;strokeColor=#009999;" parent="qaeBgTrw7U3qTMY30elM-1" edge="1">
          <mxGeometry width="50" height="50" relative="1" as="geometry">
            <mxPoint x="40" y="61" as="sourcePoint" />
            <mxPoint x="760" y="60" as="targetPoint" />
          </mxGeometry>
        </mxCell>
        <mxCell id="_4hq-xx5Gk1IdgjJdW3N-18" value="&lt;font color=&quot;#4d4d4d&quot; style=&quot;font-size: 21px&quot;&gt;&lt;span style=&quot;font-weight: 700 ; font-size: 21px&quot;&gt;学習するべき技術を俯瞰する&lt;br&gt;～&lt;/span&gt;&lt;b style=&quot;font-size: 21px&quot;&gt;Essential Skills Software Developers should Learn～&lt;/b&gt;&lt;/font&gt;" style="text;html=1;strokeColor=none;fillColor=none;align=left;verticalAlign=middle;whiteSpace=wrap;rounded=0;fontSize=21;" parent="qaeBgTrw7U3qTMY30elM-1" vertex="1">
          <mxGeometry x="60" y="20" width="685" height="30" as="geometry" />
        </mxCell>
        <mxCell id="_4hq-xx5Gk1IdgjJdW3N-19" value="Technical Skill" style="rounded=0;whiteSpace=wrap;html=1;fontSize=21;fontColor=#FFFFFF;strokeColor=#FFB570;strokeWidth=7;fillColor=#009999;fontStyle=1" parent="qaeBgTrw7U3qTMY30elM-1" vertex="1">
          <mxGeometry x="40" y="220" width="160" height="30" as="geometry" />
        </mxCell>
        <mxCell id="_4hq-xx5Gk1IdgjJdW3N-20" value="&lt;ul style=&quot;font-size: 20px;&quot;&gt;&lt;li style=&quot;font-size: 20px;&quot;&gt;今後のキャリアのために我々ソフトウェアエンジニアは何を学ぶべきか？を俯瞰する。&lt;/li&gt;&lt;li style=&quot;font-size: 20px;&quot;&gt;各領域の概念及び技術要素を深堀するための足掛かりとする。&lt;/li&gt;&lt;/ul&gt;" style="rounded=0;whiteSpace=wrap;html=1;fontSize=20;fontColor=#4D4D4D;strokeColor=none;strokeWidth=1;fillColor=#E6E6E6;gradientColor=none;opacity=50;align=left;" parent="qaeBgTrw7U3qTMY30elM-1" vertex="1">
          <mxGeometry x="40" y="80" width="720" height="80" as="geometry" />
        </mxCell>
        <mxCell id="_4hq-xx5Gk1IdgjJdW3N-21" value="Human Skill" style="rounded=0;whiteSpace=wrap;html=1;fontSize=21;fontColor=#FFFFFF;strokeColor=#009999;strokeWidth=1;fillColor=#009999;fontStyle=1" parent="qaeBgTrw7U3qTMY30elM-1" vertex="1">
          <mxGeometry x="40" y="180" width="160" height="30" as="geometry" />
        </mxCell>
        <mxCell id="_4hq-xx5Gk1IdgjJdW3N-26" value="*" style="text;html=1;strokeColor=none;fillColor=none;align=center;verticalAlign=middle;whiteSpace=wrap;rounded=0;fontSize=17;fontColor=#333333;opacity=50;" parent="qaeBgTrw7U3qTMY30elM-1" vertex="1">
          <mxGeometry width="20" height="30" as="geometry" />
        </mxCell>
        <mxCell id="_4hq-xx5Gk1IdgjJdW3N-27" value="*" style="text;html=1;strokeColor=none;fillColor=none;align=center;verticalAlign=middle;whiteSpace=wrap;rounded=0;fontSize=17;fontColor=#333333;opacity=50;" parent="qaeBgTrw7U3qTMY30elM-1" vertex="1">
          <mxGeometry x="800" y="553" width="20" height="30" as="geometry" />
        </mxCell>
        <mxCell id="_4hq-xx5Gk1IdgjJdW3N-67" value="&lt;span style=&quot;color: rgb(0, 0, 0); font-size: 20px; font-weight: 700;&quot;&gt;アプリ&lt;br style=&quot;font-size: 20px;&quot;&gt;ケーション&lt;/span&gt;" style="rounded=0;whiteSpace=wrap;html=1;fontSize=20;fontColor=#333333;strokeColor=none;strokeWidth=1;fillColor=#CCCCCC;gradientColor=none;opacity=50;" parent="qaeBgTrw7U3qTMY30elM-1" vertex="1">
          <mxGeometry x="40" y="353" width="120" height="50" as="geometry" />
        </mxCell>
        <mxCell id="_4hq-xx5Gk1IdgjJdW3N-68" value="&lt;span style=&quot;color: rgb(0, 0, 0); font-size: 20px; font-weight: 700;&quot;&gt;ミドル&lt;br style=&quot;font-size: 20px;&quot;&gt;ウェア&lt;/span&gt;" style="rounded=0;whiteSpace=wrap;html=1;fontSize=20;fontColor=#333333;strokeColor=none;strokeWidth=1;fillColor=#CCCCCC;gradientColor=none;opacity=50;" parent="qaeBgTrw7U3qTMY30elM-1" vertex="1">
          <mxGeometry x="40" y="423" width="120" height="50" as="geometry" />
        </mxCell>
        <mxCell id="_4hq-xx5Gk1IdgjJdW3N-69" value="&lt;span style=&quot;color: rgb(0, 0, 0); font-size: 20px; font-weight: 700;&quot;&gt;ハード&lt;br style=&quot;font-size: 20px;&quot;&gt;ウェア&lt;/span&gt;" style="rounded=0;whiteSpace=wrap;html=1;fontSize=20;fontColor=#333333;strokeColor=none;strokeWidth=1;fillColor=#CCCCCC;gradientColor=none;opacity=50;" parent="qaeBgTrw7U3qTMY30elM-1" vertex="1">
          <mxGeometry x="40" y="493" width="120" height="50" as="geometry" />
        </mxCell>
        <mxCell id="_4hq-xx5Gk1IdgjJdW3N-70" value="&lt;div style=&quot;font-size: 15px;&quot;&gt;Containers (Docker and Kubernetes)&lt;/div&gt;" style="whiteSpace=wrap;html=1;fillColor=rgb(255, 255, 255);strokeColor=rgb(0, 0, 0);fontColor=rgb(0, 0, 0);rounded=1;fontStyle=1;strokeWidth=1;flipH=0;flipV=1;fontSize=15;" parent="qaeBgTrw7U3qTMY30elM-1" vertex="1">
          <mxGeometry x="300" y="473" width="340" height="30" as="geometry" />
        </mxCell>
        <mxCell id="_4hq-xx5Gk1IdgjJdW3N-71" value="&lt;div style=&quot;font-size: 15px;&quot;&gt;Cloud Platform (AWS, GCP, or Azure)&lt;/div&gt;" style="whiteSpace=wrap;html=1;fillColor=rgb(255, 255, 255);strokeColor=rgb(0, 0, 0);fontColor=rgb(0, 0, 0);rounded=1;fontStyle=1;strokeWidth=1;flipH=0;flipV=1;fontSize=15;" parent="qaeBgTrw7U3qTMY30elM-1" vertex="1">
          <mxGeometry x="300" y="513" width="340" height="30" as="geometry" />
        </mxCell>
        <mxCell id="_4hq-xx5Gk1IdgjJdW3N-73" value="&lt;div style=&quot;font-size: 14px;&quot;&gt;UNIX (Linux)&lt;/div&gt;" style="whiteSpace=wrap;html=1;fillColor=rgb(255, 255, 255);strokeColor=rgb(0, 0, 0);fontColor=rgb(0, 0, 0);rounded=1;fontStyle=1;strokeWidth=1;flipH=0;flipV=1;fontSize=14;" parent="qaeBgTrw7U3qTMY30elM-1" vertex="1">
          <mxGeometry x="180" y="423" width="100" height="50" as="geometry" />
        </mxCell>
        <mxCell id="_4hq-xx5Gk1IdgjJdW3N-74" value="&lt;div style=&quot;font-size: 14px;&quot;&gt;Networking basics&lt;/div&gt;" style="whiteSpace=wrap;html=1;fillColor=rgb(255, 255, 255);strokeColor=rgb(0, 0, 0);fontColor=rgb(0, 0, 0);rounded=1;fontStyle=1;strokeWidth=1;flipH=0;flipV=1;fontSize=14;" parent="qaeBgTrw7U3qTMY30elM-1" vertex="1">
          <mxGeometry x="180" y="493" width="100" height="50" as="geometry" />
        </mxCell>
        <mxCell id="_4hq-xx5Gk1IdgjJdW3N-75" value="&lt;span style=&quot;color: rgb(0, 0, 0); font-size: 19px; font-weight: 700;&quot;&gt;Cloud Nativeな技術&lt;/span&gt;" style="rounded=0;whiteSpace=wrap;html=1;fontSize=19;fontColor=#333333;strokeColor=none;strokeWidth=1;fillColor=#CCCCCC;gradientColor=none;opacity=50;" parent="qaeBgTrw7U3qTMY30elM-1" vertex="1">
          <mxGeometry x="300" y="423" width="340" height="40" as="geometry" />
        </mxCell>
        <mxCell id="_4hq-xx5Gk1IdgjJdW3N-78" value="&lt;div style=&quot;font-size: 14px;&quot;&gt;Data Structure and Algorithm&lt;/div&gt;" style="whiteSpace=wrap;html=1;fillColor=rgb(255, 255, 255);strokeColor=rgb(0, 0, 0);fontColor=rgb(0, 0, 0);rounded=1;fontStyle=1;strokeWidth=1;flipH=0;flipV=1;fontSize=14;" parent="qaeBgTrw7U3qTMY30elM-1" vertex="1">
          <mxGeometry x="180" y="353" width="100" height="50" as="geometry" />
        </mxCell>
        <mxCell id="_4hq-xx5Gk1IdgjJdW3N-79" value="&lt;div style=&quot;font-size: 14px;&quot;&gt;Database and SQL&lt;/div&gt;" style="whiteSpace=wrap;html=1;fillColor=rgb(255, 255, 255);strokeColor=rgb(0, 0, 0);fontColor=rgb(0, 0, 0);rounded=1;fontStyle=1;strokeWidth=1;flipH=0;flipV=1;fontSize=14;" parent="qaeBgTrw7U3qTMY30elM-1" vertex="1">
          <mxGeometry x="300" y="353" width="100" height="50" as="geometry" />
        </mxCell>
        <mxCell id="_4hq-xx5Gk1IdgjJdW3N-80" value="&lt;div style=&quot;font-size: 14px;&quot;&gt;An OOP Programming language&lt;/div&gt;" style="whiteSpace=wrap;html=1;fillColor=rgb(255, 255, 255);strokeColor=rgb(0, 0, 0);fontColor=rgb(0, 0, 0);rounded=1;fontStyle=1;strokeWidth=1;flipH=0;flipV=1;fontSize=14;" parent="qaeBgTrw7U3qTMY30elM-1" vertex="1">
          <mxGeometry x="420" y="353" width="100" height="50" as="geometry" />
        </mxCell>
        <mxCell id="_4hq-xx5Gk1IdgjJdW3N-81" value="&lt;div style=&quot;font-size: 14px;&quot;&gt;One Scripting language&lt;/div&gt;" style="whiteSpace=wrap;html=1;fillColor=rgb(255, 255, 255);strokeColor=rgb(0, 0, 0);fontColor=rgb(0, 0, 0);rounded=1;fontStyle=1;strokeWidth=1;flipH=0;flipV=1;fontSize=14;" parent="qaeBgTrw7U3qTMY30elM-1" vertex="1">
          <mxGeometry x="540" y="353" width="100" height="50" as="geometry" />
        </mxCell>
        <mxCell id="_4hq-xx5Gk1IdgjJdW3N-83" value="&lt;span style=&quot;color: rgb(0, 0, 0); font-size: 19px; font-weight: 700;&quot;&gt;基礎理論&lt;/span&gt;" style="rounded=0;whiteSpace=wrap;html=1;fontSize=19;fontColor=#333333;strokeColor=none;strokeWidth=1;fillColor=#CCCCCC;gradientColor=none;opacity=50;" parent="qaeBgTrw7U3qTMY30elM-1" vertex="1">
          <mxGeometry x="180" y="310" width="100" height="30" as="geometry" />
        </mxCell>
        <mxCell id="_4hq-xx5Gk1IdgjJdW3N-84" value="&lt;span style=&quot;color: rgb(0, 0, 0); font-size: 19px; font-weight: 700;&quot;&gt;PG言語&lt;/span&gt;" style="rounded=0;whiteSpace=wrap;html=1;fontSize=19;fontColor=#333333;strokeColor=none;strokeWidth=1;fillColor=#CCCCCC;gradientColor=none;opacity=50;" parent="qaeBgTrw7U3qTMY30elM-1" vertex="1">
          <mxGeometry x="300" y="310" width="340" height="30" as="geometry" />
        </mxCell>
        <mxCell id="_4hq-xx5Gk1IdgjJdW3N-85" value="&lt;font color=&quot;#000000&quot; style=&quot;font-size: 19px;&quot;&gt;&lt;span style=&quot;font-size: 19px;&quot;&gt;&lt;b style=&quot;font-size: 19px;&quot;&gt;Dev Tools&lt;/b&gt;&lt;/span&gt;&lt;/font&gt;" style="rounded=0;whiteSpace=wrap;html=1;fontSize=19;fontColor=#333333;strokeColor=none;strokeWidth=1;fillColor=#CCCCCC;gradientColor=none;opacity=50;" parent="qaeBgTrw7U3qTMY30elM-1" vertex="1">
          <mxGeometry x="660" y="310" width="100" height="30" as="geometry" />
        </mxCell>
        <mxCell id="_4hq-xx5Gk1IdgjJdW3N-86" value="&lt;div style=&quot;font-size: 14px;&quot;&gt;A Version Control Tool (Git)&lt;/div&gt;" style="whiteSpace=wrap;html=1;fillColor=rgb(255, 255, 255);strokeColor=rgb(0, 0, 0);fontColor=rgb(0, 0, 0);rounded=1;fontStyle=1;strokeWidth=1;flipH=0;flipV=1;fontSize=14;" parent="qaeBgTrw7U3qTMY30elM-1" vertex="1">
          <mxGeometry x="660" y="353" width="100" height="50" as="geometry" />
        </mxCell>
        <mxCell id="_4hq-xx5Gk1IdgjJdW3N-87" value="&lt;div style=&quot;font-size: 14px;&quot;&gt;One Text Editors (VIM)&lt;/div&gt;" style="whiteSpace=wrap;html=1;fillColor=rgb(255, 255, 255);strokeColor=rgb(0, 0, 0);fontColor=rgb(0, 0, 0);rounded=1;fontStyle=1;strokeWidth=1;flipH=0;flipV=1;fontSize=14;" parent="qaeBgTrw7U3qTMY30elM-1" vertex="1">
          <mxGeometry x="660" y="423" width="100" height="50" as="geometry" />
        </mxCell>
        <mxCell id="_4hq-xx5Gk1IdgjJdW3N-88" value="&lt;div style=&quot;font-size: 14px;&quot;&gt;IDEs (VSCode or IntelliJIDEA)&lt;/div&gt;" style="whiteSpace=wrap;html=1;fillColor=rgb(255, 255, 255);strokeColor=rgb(0, 0, 0);fontColor=rgb(0, 0, 0);rounded=1;fontStyle=1;strokeWidth=1;flipH=0;flipV=1;fontSize=14;" parent="qaeBgTrw7U3qTMY30elM-1" vertex="1">
          <mxGeometry x="660" y="493" width="100" height="50" as="geometry" />
        </mxCell>
        <mxCell id="_4hq-xx5Gk1IdgjJdW3N-90" value="ref.&amp;nbsp;&lt;span style=&quot;background-color: rgb(255, 255, 255); color: rgb(23, 23, 23); font-size: 17px;&quot;&gt;11 Essential Skills Software Developers should Learn in 2022&lt;/span&gt;&lt;br style=&quot;font-size: 17px;&quot;&gt;https://dev.to/javinpaul/11-essential-skills-software-developers-should-learn-in-2020-1bio" style="whiteSpace=wrap;html=1;fontSize=17;fontColor=#333333;strokeColor=none;strokeWidth=1;fillColor=none;gradientColor=none;opacity=50;align=left;" parent="qaeBgTrw7U3qTMY30elM-1" vertex="1">
          <mxGeometry x="240" y="180" width="520" height="70" as="geometry" />
        </mxCell>
        <mxCell id="_4hq-xx5Gk1IdgjJdW3N-93" value="" style="triangle;whiteSpace=wrap;html=1;fontSize=12;strokeColor=none;strokeWidth=1;fillColor=#CCCCCC;opacity=50;direction=south;" parent="qaeBgTrw7U3qTMY30elM-1" vertex="1">
          <mxGeometry x="80" y="269" width="80" height="22" as="geometry" />
        </mxCell>
      </root>
    </mxGraphModel>
  </diagram>
</mxfile>
